Coordinates
version=1
nRows=9
nColumns=24
inDegrees=yes

Units are S.I. units (second, meters, Newtons, ...)
Angles are in degrees.

endheader
time	pelvis_tilt	pelvis_list	pelvis_rotation	pelvis_tx	pelvis_ty	pelvis_tz	hip_flexion_r	hip_adduction_r	hip_rotation_r	knee_angle_r	ankle_angle_r	subtalar_angle_r	mtp_angle_r	hip_flexion_l	hip_adduction_l	hip_rotation_l	knee_angle_l	ankle_angle_l	subtalar_angle_l	mtp_angle_l	lumbar_extension	lumbar_bending	lumbar_rotation
      0.73300000	     -4.75247269	      0.18471558	      2.75365585	     -0.43027581	      1.06013123	      0.32934257	     18.28409670	      2.23785403	     -3.61327657	    -22.56393288	     11.25395458	     -3.32629451	      4.48143410	     19.74999901	     -4.38915500	     -4.36996454	    -70.42294046	      7.75768687	      5.17672442	      2.06852150	    -14.01167277	      6.43725692	      1.09207660
      0.73716667	     -4.73648566	      0.27105677	      2.70165101	     -0.42508572	      1.06134370	      0.32969176	     17.74803466	      2.18261215	     -3.62461976	    -22.13713846	     11.31707314	     -3.16727095	      4.47965728	     20.27170661	     -4.26095415	     -4.41212250	    -70.07266014	      8.07779955	      5.51298990	      2.11514954	    -14.06577404	      6.29958451	      1.27049673
      0.74133333	     -4.70282398	      0.35925143	      2.63646317	     -0.41991589	      1.06255388	      0.33005706	     17.19516412	      2.12832020	     -3.63110361	    -21.70830377	     11.36849536	     -3.01310658	      4.47856448	     20.75739355	     -4.13607030	     -4.47146718	    -69.66306128	      8.39338215	      5.83182897	      2.16301931	    -14.14431722	      6.15361228	      1.45278491
      0.74550000	     -4.67950147	      0.43879305	      2.55945416	     -0.41472913	      1.06369798	      0.33044784	     16.65083355	      2.08720885	     -3.62226877	    -21.27229424	     11.44152659	     -2.86615935	      4.47781585	     21.23866403	     -4.03068654	     -4.55367558	    -69.20428582	      8.68371955	      6.11698204	      2.22948442	    -14.20042473	      6.01075646	      1.69168712
      0.74966667	     -4.65994707	      0.53237218	      2.47349040	     -0.40956285	      1.06482591	      0.33083440	     16.11572959	      2.02940514	     -3.61118097	    -20.84069645	     11.44650229	     -2.72854752	      4.47756105	     21.70441906	     -3.90602291	     -4.64399578	    -68.68174370	      8.97885080	      6.36420099	      2.27372575	    -14.26039820	      5.85257990	      1.83556606
      0.75383333	     -4.65275688	      0.61747840	      2.37510498	     -0.40439350	      1.06586708	      0.33124040	     15.59399594	      1.98446640	     -3.57762146	    -20.40636663	     11.48639812	     -2.59089658	      4.47921117	     22.17025298	     -3.79870412	     -4.75268286	    -68.11662405	      9.25865567	      6.59017345	      2.31934775	    -14.30132111	      5.70100289	      2.02599068
      0.75800000	     -4.62055854	      0.68635875	      2.27499519	     -0.39924092	      1.06690614	      0.33164159	     15.04201342	      1.95814564	     -3.53903872	    -19.95984505	     11.52951443	     -2.46251475	      4.48207966	     22.59845692	     -3.71236898	     -4.86372668	    -67.50760458	      9.51454321	      6.77790399	      2.37322003	    -14.38262560	      5.57429218	      2.26387992
      0.76216667	     -4.59916366	      0.77080343	      2.15789970	     -0.39408673	      1.06789319	      0.33206990	     14.50772319	      1.91593981	     -3.49222737	    -19.52227696	     11.54918796	     -2.33752130	      4.48520137	     23.01482935	     -3.61557627	     -5.00103914	    -66.83739310	      9.76508786	      6.91813939	      2.41855662	    -14.43557156	      5.41579168	      2.45467846
      0.76633333	     -4.60199180	      0.84317187	      2.03908972	     -0.38891688	      1.06878026	      0.33250649	     14.00034195	      1.88512483	     -3.44852857	    -19.08637213	     11.56678278	     -2.21333458	      4.48887980	     23.44685610	     -3.53644375	     -5.14639968	    -66.13163881	     10.00015531	      7.00656638	      2.45319661	    -14.45827441	      5.25738977	      2.62349543
